<svg width="189" height="189" viewBox="0 0 189 189" fill="none" xmlns="http://www.w3.org/2000/svg">
<path d="M87.6788 0.0907317C86.9758 0.164642 84.7929 0.423327 82.8689 0.608103C70.6592 1.93849 57.1545 6.52092 46.2397 13.025C32.365 21.3029 21.0803 32.5742 12.7925 46.4324C6.39161 57.1494 1.91471 70.1945 0.360742 82.6484C-0.120247 86.6765 -0.120247 102.272 0.360742 106.3C3.91266 135.051 20.8953 160.845 46.2397 175.923C71.0292 190.705 102.034 193.107 129.303 182.353C133.447 180.727 142.327 176.219 144.14 174.851C145.99 173.447 147.025 170.971 146.766 168.495C146.36 164.763 143.844 162.25 140.107 161.843C138.257 161.658 137.961 161.769 133.188 164.245C120.682 170.749 109.989 173.706 97.1136 174.186C61.9644 175.553 29.5161 152.9 18.5273 119.382C14.9754 108.517 13.7174 97.763 14.7904 87.046C16.0114 74.8509 20.5623 61.3992 26.6302 52.1974C37.3969 35.7524 51.8266 24.4811 69.4012 18.753C92.5257 11.2142 116.871 14.2815 137.517 27.3636C139.404 28.5461 141.55 29.6548 142.327 29.8396C148.098 31.17 153.093 25.0354 150.614 19.64C149.763 17.7922 149.023 17.127 144.658 14.3923C133.003 7.03829 119.942 2.4189 105.808 0.608103C102.552 0.164642 89.9358 -0.167954 87.6788 0.0907317Z" fill="#F7F7F7"/>
<path d="M179.178 15.4641C178.549 15.6858 177.513 16.2771 176.884 16.8314C176.292 17.3488 158.347 39.4849 137.036 66.0186C115.724 92.5524 97.9646 114.541 97.5206 114.873C96.2626 115.908 94.5237 116.093 93.0807 115.317C92.3777 114.91 83.1279 106.411 72.5831 96.3957C62.0014 86.3809 52.9736 77.8812 52.4926 77.5116C49.5696 75.2943 45.6477 75.59 42.9838 78.2138C40.3199 80.9115 39.9869 84.9396 42.2808 87.7851C43.5388 89.3742 80.131 124.075 82.8689 126.292C90.4537 132.427 100.999 132.02 107.88 125.332C110.322 122.966 187.355 27.4005 188.206 25.6637C191.129 19.8248 185.505 13.4315 179.178 15.4641Z" fill="#F7F7F7"/>
<path d="M176.107 65.8708C172.185 67.5707 170.927 71.0815 172.222 76.6986C173.924 83.9049 174.627 93.7719 173.924 101.126C172.703 113.912 168.818 125.479 162.047 136.603C159.235 141.259 158.902 142.922 160.308 145.952C161.011 147.505 161.603 148.207 162.824 148.909C164.97 150.165 166.894 150.461 168.855 149.907C171.593 149.168 173.147 147.283 177.439 139.559C188.391 119.751 191.757 95.7305 186.652 73.5574C185.912 70.3423 185.468 69.1967 184.543 68.0881C182.434 65.5382 178.956 64.6143 176.107 65.8708Z" fill="#F7F7F7"/>
</svg>
